<svg xmlns="http://www.w3.org/2000/svg" viewBox="0 0 80 80" fill="none">
  <title>Pull request reviewer with checklist</title>
  <g stroke="#243653" stroke-width="2.5" stroke-linecap="round" stroke-linejoin="round">
    <ellipse cx="40" cy="69" rx="25" ry="5" fill="#B8A7E6" opacity=".14" stroke="none"/>
    <circle cx="37" cy="23" r="11" fill="#FFD8A8"/>
    <path d="M28 22c0-10 17-14 22-2l-1 6-6-5-4 4-5-4-6 4z" fill="#7BA7E1"/>
    <circle cx="33.5" cy="24" r="1.2" fill="#243653" stroke="none"/>
    <circle cx="40.5" cy="24" r="1.2" fill="#243653" stroke="none"/>
    <path d="M34 28c2 1.8 4 1.8 6 0"/>
    <path d="M25 58c1-15 5-22 12-22 7 0 12 7 14 22" fill="#B8A7E6"/>
    <rect x="45" y="39" width="20" height="25" rx="3" fill="#FBFAF7"/>
    <path d="m50 46 2 2 4-5M58 46h4M50 54l2 2 4-5M58 54h4"/>
    <circle cx="25" cy="49" r="7" fill="#A8D5BA"/>
    <path d="m30 54 5 5"/>
  </g>
</svg>