<svg xmlns="http://www.w3.org/2000/svg" viewBox="0 0 576 176" role="img" aria-labelledby="t d">
<title id="t">State mini-scene consumer fixture</title><desc id="d">Representative empty, success, and failure states with visible labels.</desc>
<g font-family="system-ui,sans-serif" fill="#4A4A5A" text-anchor="middle">
<g transform="translate(0 0)"><rect x="8" y="8" width="176" height="136" rx="14" fill="#F7F1E8" stroke="#4A4A5A" stroke-width="3"/><path d="M48 38v62M48 52h58M48 76h70" fill="none" stroke="#4A4A5A" stroke-width="4"/><circle cx="48" cy="52" r="6" fill="#CFE3F3" stroke="#4A4A5A" stroke-width="4"/><circle cx="48" cy="76" r="6" fill="#E4D5F3" stroke="#4A4A5A" stroke-width="4"/><text x="96" y="164" font-size="14">No activity</text></g>
<g transform="translate(192 0)"><rect x="8" y="8" width="176" height="136" rx="14" fill="#F7F1E8" stroke="#4A4A5A" stroke-width="3"/><rect x="38" y="38" width="116" height="24" rx="8" fill="#BFE4D0" stroke="#4A4A5A" stroke-width="4"/><rect x="38" y="76" width="116" height="24" rx="8" fill="#BFE4D0" stroke="#4A4A5A" stroke-width="4"/><path d="m48 50 6 6 10-13M48 88l6 6 10-13" fill="none" stroke="#4A4A5A" stroke-width="4"/><text x="96" y="164" font-size="14">All green</text></g>
<g transform="translate(384 0)"><rect x="8" y="8" width="176" height="136" rx="14" fill="#F7F1E8" stroke="#4A4A5A" stroke-width="3"/><rect x="32" y="38" width="88" height="58" rx="8" fill="#EEF4FB" stroke="#4A4A5A" stroke-width="4"/><circle cx="140" cy="76" r="24" fill="#F5D7B8" stroke="#4A4A5A" stroke-width="4"/><path d="m130 66 20 20M150 66l-20 20" stroke="#4A4A5A" stroke-width="4"/><text x="96" y="164" font-size="14">CI failed</text></g>
</g></svg>
